# xmcd CD database file
#
# Track frame offsets:
#	150
#	15897
#	34455
#	53412
#	77810
#	99037
#	112857
#	144905
#	160040
#	179010
#	193572
#	212842
#	225710
#	227975
#
# Disc length: 3370 seconds
#
# Revision: 0
# Processed by: cddbd v1.5.1PL2 Copyright (c) Steve Scherf et al.
# Submitted via: CDex 1.51
#
DISCID=a60d280e
DTITLE=Johnson Machinegun - Lifter
DYEAR=2001
DGENRE=Blues
TTITLE0=Rick Wants Funk
TTITLE1=Star
TTITLE2=Elemental
TTITLE3=Blues for Mama
TTITLE4=Killers
TTITLE5=Backdoor Man
TTITLE6=Intermission
TTITLE7=Better Call Susie
TTITLE8=Blow
TTITLE9=Matter of Convenience
TTITLE10=Miss Celia
TTITLE11=Work Yourself
TTITLE12=13
TTITLE13=St. James Infirmary (Live)
EXTD=YEAR: 2001
EXTT0=
EXTT1=
EXTT2=
EXTT3=
EXTT4=
EXTT5=
EXTT6=
EXTT7=
EXTT8=
EXTT9=
EXTT10=
EXTT11=
EXTT12=
EXTT13=
PLAYORDER=
